<svg viewBox="0 0 898.82 156.35" xmlns="http://www.w3.org/2000/svg" xmlns:xlink="http://www.w3.org/1999/xlink"><linearGradient id="a" gradientUnits="userSpaceOnUse" x1="133.04" x2="133.04" y1="55.98" y2="27.51"><stop offset=".25" stop-color="#f15a29"/><stop offset=".43" stop-color="#f3903f"/><stop offset=".82" stop-color="#f4943d"/><stop offset="1" stop-color="#fdc70c"/></linearGradient><linearGradient id="b" x1="107.64" x2="107.64" xlink:href="#a" y1="38.87" y2="10.39"/><linearGradient id="c" x1="82.67" x2="82.67" xlink:href="#a" y1="55.98" y2="27.51"/><linearGradient id="d" x1="123.51" x2="123.51" xlink:href="#a" y1="88.13" y2="59.66"/><linearGradient id="e" x1="92.2" x2="92.2" xlink:href="#a" y1="88.13" y2="59.66"/><linearGradient id="f" x1="107.64" x2="107.64" xlink:href="#a" y1="57.99" y2="44.97"/><linearGradient id="g" x1="32.12" x2="32.12" xlink:href="#a" y1="69.01" y2="43.55"/><linearGradient id="h" x1="176.68" x2="176.68" xlink:href="#a" y1="159.62" y2="67.5"/><linearGradient id="i" x1="88.87" x2="88.87" xlink:href="#a" y1="159.44" y2="79.97"/><linearGradient id="j" x1="107.64" x2="107.64" xlink:href="#a" y1="102.97" y2="0"/><linearGradient id="k" x1="32.12" x2="32.12" xlink:href="#a" y1="89" y2="23.56"/><linearGradient id="l" gradientUnits="userSpaceOnUse" x1="443.31" x2="443.31" y1="29.09" y2="156.72"><stop offset="0" stop-color="#fdc70c"/><stop offset=".18" stop-color="#f4943d"/><stop offset=".57" stop-color="#f3903f"/><stop offset=".75" stop-color="#f15a29"/></linearGradient><linearGradient id="m" x1="437.6" x2="437.6" xlink:href="#l" y1="56.17" y2="123.09"/><linearGradient id="n" x1="307.45" x2="307.45" xlink:href="#l" y1="27.91" y2="157.74"/><linearGradient id="o" x1="554.84" x2="554.84" xlink:href="#l" y1="27.91" y2="157.74"/><linearGradient id="p" x1="620.06" x2="620.06" xlink:href="#l" y1="27.91" y2="157.74"/><linearGradient id="q" x1="691.33" x2="691.33" xlink:href="#l" y1="27.91" y2="157.74"/><linearGradient id="r" x1="822.56" x2="822.56" xlink:href="#l" y1="28.07" y2="157.74"/><g fill="none" stroke-miterlimit="10" stroke-width="9"><ellipse cx="133.04" cy="41.75" rx="9.53" ry="9.74" stroke="url(#a)"/><ellipse cx="107.64" cy="24.63" rx="9.53" ry="9.74" stroke="url(#b)"/><ellipse cx="82.67" cy="41.75" rx="9.53" ry="9.74" stroke="url(#c)"/><ellipse cx="123.51" cy="73.89" rx="9.53" ry="9.74" stroke="url(#d)"/><ellipse cx="92.2" cy="73.89" rx="9.53" ry="9.74" stroke="url(#e)"/><ellipse cx="107.64" cy="51.48" rx="1.97" ry="2.01" stroke="url(#f)"/><ellipse cx="32.12" cy="56.28" rx="8.05" ry="8.23" stroke="url(#g)"/><path d="m152.14 133.21c0 .7 5.61 3.4 6.19 3.75l13.77 8.37 13.28 8.06c7.74 4.7 14.72-.76 15.26-9.18 1.23-19.08.11-38.56.11-57.67 0-11.2-2.37-18.73-14.79-12l-11.46 6.23q-11.17 6-22.36 12.09z" stroke="url(#h)" transform="translate(-5.71 -3.28)"/><path d="m152.14 80v50.5c0 13.5-12.22 24.44-24.14 24.44h-78.27a24.28 24.28 0 0 1 -24.14-24.44v-45.08" stroke="url(#i)" transform="translate(-5.71 -3.28)"/><ellipse cx="107.64" cy="51.48" rx="45.98" ry="46.98" stroke="url(#j)"/><ellipse cx="32.12" cy="56.28" rx="27.62" ry="28.22" stroke="url(#k)"/></g><path d="m501.27 92.9a67.71 67.71 0 0 1 -11 37.45c-.79 1.21-1.66 2.42-2.54 3.58-.22.3-.45.6-.69.88l-11.57-13.51.81-1.21a49.3 49.3 0 0 0 8-27.19c0-25.27-18.37-45.83-41-45.83s-40.92 20.56-40.92 45.83 18.36 45.85 40.94 45.85a38.09 38.09 0 0 0 24.22-8.88l11.42 13.37a54.62 54.62 0 0 1 -35.64 13.48c-31.95 0-57.95-28.63-57.95-63.82s26-63.81 57.95-63.81 57.97 28.63 57.97 63.81z" fill="url(#l)" transform="translate(-5.71 -3.28)"/><ellipse cx="437.6" cy="89.63" fill="url(#m)" rx="31.67" ry="33.46"/><text x="-5.71" y="-3.28"/><path d="m349.2 31.78a12.06 12.06 0 0 1 9.44-3.87 12.37 12.37 0 0 1 8.93 3.54 11.37 11.37 0 0 1 3.66 8.47v109.08a8.25 8.25 0 0 1 -2.64 6.17 8.84 8.84 0 0 1 -6.38 2.55 8.55 8.55 0 0 1 -6.29-2.55 8.39 8.39 0 0 1 -2.55-6.17v-84.4l-33.16 83.6a17 17 0 0 1 -4.85 6.91 13.21 13.21 0 0 1 -15.82 0 16.89 16.89 0 0 1 -4.84-6.91l-33.17-83.6v84.4a8.39 8.39 0 0 1 -2.55 6.17 8.55 8.55 0 0 1 -6.29 2.55 8.85 8.85 0 0 1 -6.38-2.55 8.24 8.24 0 0 1 -2.63-6.17v-109.08a11.39 11.39 0 0 1 3.65-8.47 12.37 12.37 0 0 1 8.93-3.54 12.06 12.06 0 0 1 9.44 3.87 31.51 31.51 0 0 1 5.7 9.29l36.05 90.18 36.06-90.18a31.28 31.28 0 0 1 5.69-9.29z" fill="url(#n)" transform="translate(-5.71 -3.28)"/><path d="m501.78 40.91a11.06 11.06 0 0 1 -.51-3.29 17.84 17.84 0 0 1 .25-2.63 8.11 8.11 0 0 1 1.28-3.21 8.69 8.69 0 0 1 3-2.72 10.5 10.5 0 0 1 5.35-1.15 10.91 10.91 0 0 1 5.85 1.64 8.59 8.59 0 0 1 3.66 4.61l34.18 97.58 34.16-97.58a8.59 8.59 0 0 1 3.66-4.61 10.91 10.91 0 0 1 5.87-1.64 11.58 11.58 0 0 1 3.23.49 10.85 10.85 0 0 1 3.24 1.6 7.71 7.71 0 0 1 2.47 3 10.56 10.56 0 0 1 .93 4.69 11.06 11.06 0 0 1 -.51 3.29l-40.12 107.55a14.11 14.11 0 0 1 -4.85 6.74 14.45 14.45 0 0 1 -16.16 0 14.11 14.11 0 0 1 -4.85-6.74z" fill="url(#o)" transform="translate(-5.71 -3.28)"/><path d="m630.09 148a9.33 9.33 0 0 1 -2.89 6.83 10.19 10.19 0 0 1 -14.2 0 9.16 9.16 0 0 1 -3-6.83v-110.38a9.08 9.08 0 0 1 3-6.91 10.4 10.4 0 0 1 14.2 0 9.25 9.25 0 0 1 2.89 6.91z" fill="url(#p)" transform="translate(-5.71 -3.28)"/><path d="m654.42 157.74a13.92 13.92 0 0 1 -9.18-3.45 12.72 12.72 0 0 1 -3.06-4.12 12.21 12.21 0 0 1 -1.19-5.43v-104a12.16 12.16 0 0 1 3.91-9 13.19 13.19 0 0 1 9.52-3.78h77a8.68 8.68 0 0 1 6.29 2.47 8.1 8.1 0 0 1 2.56 6.09 8.38 8.38 0 0 1 -2.56 6.17 8.55 8.55 0 0 1 -6.29 2.55h-70.4v35.66h66.15a8.55 8.55 0 0 1 6.29 2.55 8.41 8.41 0 0 1 2.55 6.17 8.21 8.21 0 0 1 -2.55 6 8.51 8.51 0 0 1 -6.29 2.55h-66.11v42.29h71.76a8.65 8.65 0 0 1 6.18 2.54 8.29 8.29 0 0 1 2.64 6.18 8 8 0 0 1 -2.64 6.08 8.78 8.78 0 0 1 -6.21 2.47z" fill="url(#q)" transform="translate(-5.71 -3.28)"/><path d="m867.79 155.6a13.51 13.51 0 0 1 -14.45.09 9.89 9.89 0 0 1 -4.08-5.85l-26.7-100.37-26.71 100.37a9.89 9.89 0 0 1 -4.08 5.85 12.2 12.2 0 0 1 -7 2.05 12.83 12.83 0 0 1 -7.4-2.14 10.83 10.83 0 0 1 -4.33-5.92l-32.12-109.26a14.36 14.36 0 0 1 -.34-2.64 11.66 11.66 0 0 1 .42-2.78 9.63 9.63 0 0 1 1.53-3.21 9 9 0 0 1 3.06-2.64 10.44 10.44 0 0 1 5-1.07 10.86 10.86 0 0 1 6.12 1.81 8.48 8.48 0 0 1 3.6 5.11l25 92.31 23-87.54a14.24 14.24 0 0 1 5.19-8 15.94 15.94 0 0 1 18.28 0 14.43 14.43 0 0 1 5.1 8l23.12 87.53 25-92.3a8.56 8.56 0 0 1 3.48-5.11 10.47 10.47 0 0 1 6-1.81 9.28 9.28 0 0 1 7.4 3.05 9.76 9.76 0 0 1 2.64 6.5v1.47a3.86 3.86 0 0 1 -.34 1.32l-32.18 109.26a11 11 0 0 1 -4.21 5.92z" fill="url(#r)" transform="translate(-5.71 -3.28)"/></svg>